{"title":"The Godfather Part III 1990 720p BrRip 1GB x264 [Dual-Audio] Eng","uid":7700879,"size":1071200905,"categoryP":"video","categoryS":"hd___movies","magnet":"?xt=urn:btih:108cc88e9ed3affc10b9fbd9e0357ae88f01f616&amp;dn=The+Godfather+Part+III+1990+720p+BrRip+1GB+x264+%5BDual-Audio%5D+Eng&amp;tr=udp%3A%2F%2Ftracker.openbittorrent.com%3A80&amp;tr=udp%3A%2F%2Fopen.demonii.com%3A1337&amp;tr=udp%3A%2F%2Ftracker.coppersurfer.tk%3A6969&amp;tr=udp%3A%2F%2Fexodus.desync.com%3A6969","seeders":2,"leechers":2,"uploader":"MFATeam","files":8,"time":1349511142,"description":"::General::\nComplete name: The Godfather Part III 1990 720p BrRip 1GB x264 [Dual-Audio] Eng-Hin NimitMak SilverRG\nDirector: Francis Ford Coppola\nFormat: MPEG-4\nFile size: 1007 MiB\nDuration: 2h 50mn\nOverall Bitrate: 827 Kbps\nLanguage: Dual Audio [Eng-Hin]\nSub Title: Embedded + .srt (Can Be Turned Off)\nEncoded date: 2012-09-27\nWriting application: MeGui\nWriting library: x264 core 100 r1659 57b2e56\nEncoder: NimitMak\nSource: BR-Rip X264 YIFY (Thanks)\n\n\n\n::IMDB INFO::\nIMDB Link:http://www.imdb.com/title/tt0099674/\nIMDB Rating:7.6/10\nRelease Date:25 December 1990 (USA)\nGenre: Crime | Drama | Mystery \nYouTube\n\n\n\n::Video::\nID: 1\nFormat: AVC\nFormat/Info: Advanced Video Codec\nFormat profile: &lt;a class=&quot;__cf_email__&quot; href=&quot;/cdn-cgi/l/email-protection&quot; data-cfemail=&quot;0149686669414d342f31&quot;&gt;[email&amp;#160;protected]&lt;/a&gt;&lt;script cf-hash='f9e31' type=&quot;text/javascript&quot;&gt;\n/* &lt;![CDATA[ */!function(){try{var t=&quot;currentScript&quot;in document?document.currentScript:function(){for(var t=document.getElementsByTagName(&quot;script&quot;),e=t.length;e--;)if(t[e].getAttribute(&quot;cf-hash&quot;))return t[e]}();if(t&amp;&amp;t.previousSibling){var e,r,n,i,c=t.previousSibling,a=c.getAttribute(&quot;data-cfemail&quot;);if(a){for(e=&quot;&quot;,r=parseInt(a.substr(0,2),16),n=2;a.length-n;n+=2)i=parseInt(a.substr(n,2),16)^r,e+=String.fromCharCode(i);e=document.createTextNode(e),c.parentNode.replaceChild(e,c)}}}catch(u){}}();/* ]]&gt; */&lt;/script&gt;\nFormat settings, CABAC: Yes\nFormat settings, ReFrames: 10 frames\nCodec ID: V_MPEG4/ISO/AVC\nNominal Bitrate: 706 Kbps / 4465 Kbps(Max)\nWidth: 1280 pixels\nHeight: 720 pixels\nDisplay aspect ratio: 16:9\nFrame rate: 23.976 fps\nColor space: YUV\nChroma subsampling: 4:2:0\nBit depth: 8 bits\nScan type: Progressive\nWriting library: x264 core 100 r1659 57b2e56\n\n\n\n::Audio #1::\nID: 2\nFormat: AAC\nFormat/Info: Advanced Audio Codec\nFormat profile: HE-AAC / LC\nCodec ID: 40\nDuration: 2h 50mn\nBit rate mode: Variable\nBit rate: 35.0 Kbps\nMaximum bit rate: 60.6 Kbps\nChannel(s) : 2 channels\nChannel positions: Front: L R\nSampling rate: 48.0 KHz / 24.0 KHz\nCompression mode: Lossy\nStream size: 42.6 MiB (4%)\nLanguage: English\n\n::Audio #2::\nID: 3\nFormat: MPEG Audio\nFormat version: Version 1\nFormat profile: Layer 3\nMode: Joint stereo\nMode extension: MS Stereo\nCodec ID: 6B\nDuration: 2h 50mn\nBit rate mode: Variable\nBit rate: 81.2 Kbps\nMaximum bit rate: 140 Kbps\nChannel(s): 2 channels\nSampling rate : 44.1 KHz\nCompression mode: Lossy\nStream size: 98.8 MiB (10%)\nLanguage: Hindi\n\n::Text #1::\nID: 4\nFormat: Timed text\nCodec ID : tx3g\nDuration: 2h 39mn\nBit rate mode: Variable\nBit rate: 46 bps\nStream size: 54.3 KiB (0%)\nLanguage : English\n\nScreens :  &lt;a href=&quot;\nhttp://imgbox.com/admlVcIb&quot; rel=&quot;nofollow&quot; target=&quot;_NEW&quot;&gt;\nhttp://imgbox.com/admlVcIb&lt;/a&gt; &lt;a href=&quot;\nhttp://imgbox.com/adt6RoIA&quot; rel=&quot;nofollow&quot; target=&quot;_NEW&quot;&gt;\nhttp://imgbox.com/adt6RoIA&lt;/a&gt; &lt;a href=&quot;\nhttp://imgbox.com/acrLNHeK&quot; rel=&quot;nofollow&quot; target=&quot;_NEW&quot;&gt;\nhttp://imgbox.com/acrLNHeK&lt;/a&gt; &lt;a href=&quot;\nhttp://imgbox.com/acuqVLPR&quot; rel=&quot;nofollow&quot; target=&quot;_NEW&quot;&gt;\nhttp://imgbox.com/acuqVLPR&lt;/a&gt; &lt;a href=&quot;\nhttp://imgbox.com/abyC16Yn&quot; rel=&quot;nofollow&quot; target=&quot;_NEW&quot;&gt;\nhttp://imgbox.com/abyC16Yn&lt;/a&gt; &lt;a href=&quot;\nhttp://imgbox.com/acthRnEJ&quot; rel=&quot;nofollow&quot; target=&quot;_NEW&quot;&gt;\nhttp://imgbox.com/acthRnEJ&lt;/a&gt; &lt;a href=&quot;\nhttp://imgbox.com/acn16bU2&quot; rel=&quot;nofollow&quot; target=&quot;_NEW&quot;&gt;\nhttp://imgbox.com/acn16bU2&lt;/a&gt; &lt;a href=&quot;\nhttp://www.shotpix.com/images/25177519023077258670.jpg&quot; rel=&quot;nofollow&quot; target=&quot;_NEW&quot;&gt;\nhttp://www.shotpix.com/images/25177519023077258670.jpg&lt;/a&gt;","torrent":{"xt":"urn:btih:108cc88e9ed3affc10b9fbd9e0357ae88f01f616","amp;dn":"The+Godfather+Part+III+1990+720p+BrRip+1GB+x264+%5BDual-Audio%5D+Eng","amp;tr":["udp%3A%2F%2Ftracker.openbittorrent.com%3A80","udp%3A%2F%2Fopen.demonii.com%3A1337","udp%3A%2F%2Ftracker.coppersurfer.tk%3A6969","udp%3A%2F%2Fexodus.desync.com%3A6969"],"infoHash":"108cc88e9ed3affc10b9fbd9e0357ae88f01f616","infoHashBuffer":{"type":"Buffer","data":[16,140,200,142,158,211,175,252,16,185,251,217,224,53,122,232,143,1,246,22]},"announce":[],"urlList":[]}}